<svg xmlns="http://www.w3.org/2000/svg" width="153" height="46" viewBox="0 0 153 46">
  <g id="Group_17094" data-name="Group 17094" transform="translate(-90.926 -109.049)">
    <path id="Path_28928" data-name="Path 28928" d="M101.819,115.527H90.926v-5.889H119.19v5.889H108.3v28.46h-6.478Z" fill="#4285f4"/>
    <g id="Group_17087" data-name="Group 17087" transform="translate(116.287 120.885)">
      <path id="Path_28929" data-name="Path 28929" d="M130.375,144.723l11.651-11.5.673-1.193.657-1.236.294-1L129.823,121.2l-.6-.45-.186.886Z" transform="translate(-116.237 -120.75)" fill="#fff464"/>
      <path id="Path_28930" data-name="Path 28930" d="M129.827,145.25l.548-.527,12.216-12.692L130.375,120.75l-.552.45-9.951,2.426-3.525,3.725-.11,3.445.657,1.236,12.325,12.692Z" transform="translate(-116.237 -120.75)" fill="#fff464"/>
    </g>
    <g id="Group_17088" data-name="Group 17088" transform="translate(224.952 132.688)">
      <path id="Path_28931" data-name="Path 28931" d="M226.739,132.518v4.557a3.411,3.411,0,0,1,2.705-1.319,3.941,3.941,0,0,1,4.189,4.305,4.039,4.039,0,0,1-4.24,4.306,3,3,0,0,1-2.654-1.319l-.132,1.135h-1.9V132.518Zm.134,7.543a2.362,2.362,0,1,0,4.723,0,2.269,2.269,0,0,0-2.337-2.4A2.349,2.349,0,0,0,226.873,140.061Z" transform="translate(-224.705 -132.518)" fill="#4a154b"/>
      <path id="Path_28932" data-name="Path 28932" d="M243.679,132.518v11.665h-1.9l-.134-1.135a3,3,0,0,1-2.654,1.319,4.038,4.038,0,0,1-4.238-4.306,3.94,3.94,0,0,1,4.189-4.305,3.4,3.4,0,0,1,2.7,1.319v-4.557Zm-6.893,7.543a2.362,2.362,0,1,0,4.723,0,2.348,2.348,0,0,0-2.386-2.4A2.271,2.271,0,0,0,236.786,140.061Z" transform="translate(-224.705 -132.518)" fill="#4a154b"/>
    </g>
    <path id="Path_28933" data-name="Path 28933" d="M178.225,143.987v-18.6H173.71v-5.251h4.515V118.52c0-6.478,4.367-9.471,9.224-9.471a11.666,11.666,0,0,1,6.281,1.963l-2.208,4.465a6.668,6.668,0,0,0-3.68-1.275c-2.061,0-3.631,1.373-3.631,4.318v1.619h7.115v5.251h-7.115v18.6Z" transform="translate(0.154)" fill="#2eb67d"/>
    <path id="Path_28934" data-name="Path 28934" d="M215.226,119.8h5.741v24.424h-5.643l-.294-3.567c-1.374,2.873-5.153,4.261-7.851,4.31-7.165.049-12.464-4.409-12.464-12.98,0-8.422,5.545-12.832,12.61-12.782,3.24,0,6.331,1.536,7.705,3.963ZM200.7,131.989c0,4.656,3.19,7.431,7.164,7.431,9.422,0,9.422-14.812,0-14.812C203.891,124.608,200.7,127.332,200.7,131.989Z" transform="translate(0.247 0)" fill="#e01e5a"/>
    <g id="Group_17091" data-name="Group 17091" transform="translate(115.714 119.334)">
      <path id="Path_28935" data-name="Path 28935" d="M125.549,130.795h-9.312s-2.125-5.37,1.816-9.156c1.43-1.391,5.255-4.173,11.166-.889v7.843s-1.565-1.642-3.265-1.43a1.757,1.757,0,0,0-1.622,1.894A2.049,2.049,0,0,0,125.549,130.795Z" transform="translate(-115.665 -119.211)" fill="#e01e5a"/>
      <path id="Path_28936" data-name="Path 28936" d="M116.894,132.032h12.054s-.425,1.951-3.9,2.492c0,.656.02,1.294.02,1.294s3.071-.406,4.153-1.893v10.8S118.826,136.359,116.894,132.032Z" transform="translate(-115.665 -119.211)" fill="#e01e5a"/>
      <path id="Path_28937" data-name="Path 28937" d="M126.167,129.627c-.232-.318-.526-.916-.319-1.16.234-.276,1.016.016,1.42.232a3.365,3.365,0,0,1,1.441,1.659.217.217,0,0,1-.207.306A3.059,3.059,0,0,1,126.167,129.627Z" transform="translate(-115.665 -119.211)" fill="#e01e5a"/>
      <g id="Group_17090" data-name="Group 17090" transform="translate(14.71)">
        <g id="Group_17089" data-name="Group 17089">
          <path id="Path_28938" data-name="Path 28938" d="M134.045,130.795h9.312s2.124-5.37-1.816-9.156c-1.43-1.391-5.255-4.173-11.166-.889v7.843s1.565-1.642,3.265-1.43a1.758,1.758,0,0,1,1.622,1.894A2.049,2.049,0,0,1,134.045,130.795Z" transform="translate(-130.375 -119.211)" fill="#e01e5a"/>
          <path id="Path_28939" data-name="Path 28939" d="M142.7,132.032H130.645s.425,1.951,3.9,2.492c0,.656-.02,1.294-.02,1.294s-3.071-.406-4.153-1.893v10.8S140.768,136.359,142.7,132.032Z" transform="translate(-130.375 -119.211)" fill="#e01e5a"/>
        </g>
        <path id="Path_28940" data-name="Path 28940" d="M133.427,129.627c.231-.318.525-.916.319-1.16-.234-.276-1.016.016-1.42.232a3.365,3.365,0,0,0-1.441,1.659.216.216,0,0,0,.207.306A3.059,3.059,0,0,0,133.427,129.627Z" transform="translate(-130.375 -119.211)" fill="#e01e5a"/>
      </g>
    </g>
    <g id="Group_17092" data-name="Group 17092" transform="translate(147.854 109.635)">
      <path id="Path_28941" data-name="Path 28941" d="M171.205,131.225v12.76h-5.99v-12.71c0-4.41-2.3-6.28-5.49-6.28-3.54,0-5.99,3-5.99,6.63v12.36h-5.99v-34.35h5.99v13.45a8.928,8.928,0,0,1,7.56-3.63C168.165,119.455,171.205,124.115,171.205,131.225Z" transform="translate(-147.745 -109.635)" fill="#ecb22e"/>
    </g>
    <g id="Group_17093" data-name="Group 17093" transform="translate(173.983 147.902)">
      <path id="Path_28942" data-name="Path 28942" d="M178.616,150.111a2.926,2.926,0,0,1-2.937,2.516h-1.943l.913-4.947h1.943A1.9,1.9,0,0,1,178.616,150.111Zm-3.789,1.618h1.018a1.83,1.83,0,0,0,1.847-1.625,1.2,1.2,0,0,0-1.263-1.541h-1.018Z" transform="translate(-173.736 -147.656)" fill="#757779"/>
      <path id="Path_28943" data-name="Path 28943" d="M179.855,151.192c-.023.431.294.742.9.742a1.693,1.693,0,0,0,.993-.325l.45.545a2.536,2.536,0,0,1-1.6.564,1.436,1.436,0,0,1-1.571-1.858,2.177,2.177,0,0,1,2.187-1.823c1.166,0,1.761.721,1.362,2.155Zm2.025-.713c.026-.453-.285-.679-.779-.679a1.17,1.17,0,0,0-1.1.679Z" transform="translate(-173.736 -147.656)" fill="#757779"/>
      <path id="Path_28944" data-name="Path 28944" d="M184.743,147.687l-.911,4.94h-.854l.911-4.94Z" transform="translate(-173.736 -147.656)" fill="#757779"/>
      <path id="Path_28945" data-name="Path 28945" d="M186.1,149.128l-.646,3.5h-.861l.646-3.5Zm-.76-.968c-.124.672.893.672,1.017,0S185.46,147.488,185.337,148.16Z" transform="translate(-173.736 -147.656)" fill="#757779"/>
      <path id="Path_28946" data-name="Path 28946" d="M190.485,149.135l-2.131,3.506h-.932l-.844-3.506h.939l.268,1.152.266,1.471.8-1.456.7-1.167Z" transform="translate(-173.736 -147.656)" fill="#757779"/>
      <path id="Path_28947" data-name="Path 28947" d="M191.26,151.192c-.023.431.294.742.9.742a1.688,1.688,0,0,0,.993-.325l.451.545a2.538,2.538,0,0,1-1.6.564,1.436,1.436,0,0,1-1.572-1.858,2.178,2.178,0,0,1,2.187-1.823c1.166,0,1.761.721,1.362,2.155Zm2.025-.713c.027-.453-.284-.679-.779-.679a1.171,1.171,0,0,0-1.1.679Z" transform="translate(-173.736 -147.656)" fill="#757779"/>
      <path id="Path_28948" data-name="Path 28948" d="M195.824,149.143l-.011.4a1.242,1.242,0,0,1,1.073-.5,1.106,1.106,0,0,1,.837.333l-.528.749a.722.722,0,0,0-.579-.226,1,1,0,0,0-1.032.883l-.34,1.838h-.861l.643-3.484Z" transform="translate(-173.736 -147.656)" fill="#757779"/>
      <path id="Path_28949" data-name="Path 28949" d="M198.959,149.128l-.645,3.5h-.863l.646-3.5Zm-.761-.968c-.124.672.893.672,1.018,0S198.322,147.488,198.2,148.16Z" transform="translate(-173.736 -147.656)" fill="#757779"/>
      <path id="Path_28950" data-name="Path 28950" d="M201.656,152.627l.336-1.823c.1-.53-.117-.933-.668-.933a1.151,1.151,0,0,0-1.07.975l-.329,1.781h-.855l.645-3.492h.77l-.031.474a1.9,1.9,0,0,1,1.241-.523c.819,0,1.363.615,1.161,1.711l-.338,1.83Z" transform="translate(-173.736 -147.656)" fill="#757779"/>
      <path id="Path_28951" data-name="Path 28951" d="M206.706,148.789l.547.481-.48.494a1.3,1.3,0,0,1,.177,1.033,1.735,1.735,0,0,1-.975,1.3.968.968,0,0,1,.509,1.152,1.957,1.957,0,0,1-2.033,1.554c-1.01,0-1.652-.614-1.479-1.554h.855c-.084.452.279.749.773.749a.969.969,0,0,0,1.021-.749c.089-.481-.322-.7-.754-.7a1.335,1.335,0,0,1-1.443-1.752,2.128,2.128,0,0,1,2.093-1.768,1.221,1.221,0,0,1,.761.2Zm-2.427,2.008a.733.733,0,0,0,.733.967,1.128,1.128,0,0,0,1.083-.967.744.744,0,0,0-.723-.983A1.143,1.143,0,0,0,204.279,150.8Z" transform="translate(-173.736 -147.656)" fill="#757779"/>
      <path id="Path_28952" data-name="Path 28952" d="M212.027,152.634l.369-2h-2.43l-.37,2h-.932l.912-4.947h.933l-.385,2.085h2.431l.385-2.085h.925l-.913,4.947Z" transform="translate(-173.736 -147.656)" fill="#757779"/>
      <path id="Path_28953" data-name="Path 28953" d="M217.175,149.143H218l-.642,3.484h-.813l.051-.509a1.629,1.629,0,0,1-1.243.615c-1.033.007-1.679-.629-1.453-1.852a2.111,2.111,0,0,1,2.152-1.823,1.036,1.036,0,0,1,1.005.565Zm-2.411,1.738a.813.813,0,0,0,.836,1.06c1.356,0,1.746-2.113.389-2.113A1.239,1.239,0,0,0,214.764,150.881Z" transform="translate(-173.736 -147.656)" fill="#757779"/>
      <path id="Path_28954" data-name="Path 28954" d="M217.822,154.083l.912-4.94h.805l-.032.48a1.688,1.688,0,0,1,1.233-.558,1.418,1.418,0,0,1,1.452,1.823,2.127,2.127,0,0,1-2.1,1.824,1.164,1.164,0,0,1-1.068-.5l-.344,1.866Zm3.507-3.195a.77.77,0,0,0-.806-.989,1.183,1.183,0,0,0-1.172.989.785.785,0,0,0,.807.99A1.211,1.211,0,0,0,221.329,150.888Z" transform="translate(-173.736 -147.656)" fill="#757779"/>
      <path id="Path_28955" data-name="Path 28955" d="M222.241,154.083l.912-4.94h.8l-.032.48a1.69,1.69,0,0,1,1.234-.558,1.417,1.417,0,0,1,1.451,1.823,2.127,2.127,0,0,1-2.1,1.824,1.165,1.165,0,0,1-1.068-.5l-.344,1.866Zm3.508-3.195a.77.77,0,0,0-.806-.989,1.182,1.182,0,0,0-1.172.989.784.784,0,0,0,.806.99A1.212,1.212,0,0,0,225.749,150.888Z" transform="translate(-173.736 -147.656)" fill="#757779"/>
      <path id="Path_28956" data-name="Path 28956" d="M228.437,149.128l-.646,3.5h-.861l.645-3.5Zm-.761-.968c-.124.672.894.672,1.018,0S227.8,147.488,227.676,148.16Z" transform="translate(-173.736 -147.656)" fill="#757779"/>
      <path id="Path_28957" data-name="Path 28957" d="M231.134,152.627l.337-1.823c.1-.53-.118-.933-.669-.933a1.151,1.151,0,0,0-1.07.975l-.329,1.781h-.855l.645-3.492h.77l-.031.474a1.9,1.9,0,0,1,1.241-.523c.82,0,1.363.615,1.161,1.711l-.338,1.83Z" transform="translate(-173.736 -147.656)" fill="#757779"/>
      <path id="Path_28958" data-name="Path 28958" d="M233.741,151.192c-.023.431.294.742.9.742a1.69,1.69,0,0,0,.993-.325l.451.545a2.538,2.538,0,0,1-1.6.564,1.436,1.436,0,0,1-1.572-1.858,2.178,2.178,0,0,1,2.188-1.823c1.166,0,1.76.721,1.361,2.155Zm2.025-.713c.027-.453-.284-.679-.779-.679a1.17,1.17,0,0,0-1.1.679Z" transform="translate(-173.736 -147.656)" fill="#757779"/>
      <path id="Path_28959" data-name="Path 28959" d="M239.611,150.069a.989.989,0,0,0-.8-.311c-.41,0-.659.126-.7.346s.14.353.58.382c.649.042,1.455.19,1.284,1.116a1.573,1.573,0,0,1-1.709,1.145,1.711,1.711,0,0,1-1.5-.622l.538-.615a1.581,1.581,0,0,0,1.111.488c.323.007.658-.162.706-.417.044-.24-.135-.34-.625-.368-.648-.049-1.388-.289-1.242-1.081s1.035-1.088,1.671-1.088a1.586,1.586,0,0,1,1.271.459Z" transform="translate(-173.736 -147.656)" fill="#757779"/>
      <path id="Path_28960" data-name="Path 28960" d="M243.082,150.069a.986.986,0,0,0-.8-.311c-.41,0-.66.126-.7.346s.14.353.579.382c.65.042,1.456.19,1.285,1.116a1.574,1.574,0,0,1-1.709,1.145,1.711,1.711,0,0,1-1.5-.622l.538-.615a1.579,1.579,0,0,0,1.11.488c.324.007.659-.162.706-.417.045-.24-.135-.34-.624-.368-.648-.049-1.388-.289-1.242-1.081s1.034-1.088,1.671-1.088a1.586,1.586,0,0,1,1.271.459Z" transform="translate(-173.736 -147.656)" fill="#757779"/>
    </g>
  </g>
</svg>
